<svg xmlns="http://www.w3.org/2000/svg" viewBox="0 0 914 914"><title>logo</title><g id="e76ac57b-8d69-441b-878d-fbfe750f684f" data-name="Capa 1"><circle cx="457" cy="457" r="456.5" style="fill:#fff;stroke:#000;stroke-miterlimit:10"/><path d="M498.81,457.42a18.47,18.47,0,0,1,9.3,7.06q3.19,4.8,2.24,9-.48,2.08-1.2,6.89T508,491.4c-.33,4.17-.51,8.6-.57,13.3a89.43,89.43,0,0,0,.89,13.79q1,6.72,1.6,10.81a24.21,24.21,0,0,1,.32,6.49,4.71,4.71,0,0,1-1.84,3.45,13.67,13.67,0,0,1-4.89,1.68,11.43,11.43,0,0,1-6.33-.48,16.29,16.29,0,0,1-5.37-3.36,18.67,18.67,0,0,1-3.93-5.29,15.85,15.85,0,0,1-1.68-6.41c-.22-2.25-.62-5.45-1.2-9.62s-1-9.11-1.28-14.82a154.6,154.6,0,0,1,.4-19.07,117.69,117.69,0,0,1,4-22.2,6,6,0,0,1,2.25-2.08,7.14,7.14,0,0,1,3.28-1A15,15,0,0,1,498.81,457.42Zm2.88-27.72a12.88,12.88,0,0,1,6.17,2.72,16.83,16.83,0,0,1,4,4.89,19.86,19.86,0,0,1,2.09,5.77,29.53,29.53,0,0,1,.56,5.37,6.86,6.86,0,0,1-1.21,3.77,6.76,6.76,0,0,1-2.32,2,7.81,7.81,0,0,1-3.21,1,23,23,0,0,1-8.81-2.4q-4.17-2.08-7.05-9t-.32-11.06Q494.17,428.59,501.69,429.7Z" transform="translate(-298 -126)" style="fill:#2aacdd"/><path d="M519.16,460.47a7.47,7.47,0,0,1,2.89-2.88,10.4,10.4,0,0,1,4-1,13.82,13.82,0,0,1,6.09,1.45,18.14,18.14,0,0,1,5.61,3.76,14.49,14.49,0,0,1,3,4.49,13.3,13.3,0,0,1,1,4.57,30.76,30.76,0,0,1-.08,3.84,73.21,73.21,0,0,1,8-9.61,47.63,47.63,0,0,1,8.34-6.33,16.26,16.26,0,0,1,9.61-2.49,49.26,49.26,0,0,1,9.7,1.61,21.08,21.08,0,0,1,8.65,4.8,29.07,29.07,0,0,1,6.81,10q2.89,6.5,4.17,17.55,2.57,22,1.92,33.65T597.05,538q-1.44,2.4-5.61,3.44T582,539.32a14.83,14.83,0,0,1-4.32-3.69,14.5,14.5,0,0,1-2.33-4.24,15.79,15.79,0,0,1-.8-4.33,18.78,18.78,0,0,1,.24-3.93c.11-.75.22-2.16.32-4.24s.19-4.52.24-7.3,0-5.74-.08-8.89-.24-6.17-.4-9.06a78.88,78.88,0,0,0-.8-7.85,25.69,25.69,0,0,0-1.2-5.13,153.9,153.9,0,0,0-13,16A207.1,207.1,0,0,0,549,514.64a117.19,117.19,0,0,0-9.29,22.44,12,12,0,0,1-1.61,3,8.58,8.58,0,0,1-2.24,2.09,6.53,6.53,0,0,1-3.69,1,15.83,15.83,0,0,1-4.89-.88,17.25,17.25,0,0,1-5-2.73,18.69,18.69,0,0,1-4.25-4.65,13.94,13.94,0,0,1-2.16-6.65c-.32-2.56-.65-6.17-1-10.82s-.48-10-.48-16,.35-12.56,1-19.55A147.75,147.75,0,0,1,519.16,460.47Z" transform="translate(-298 -126)" style="fill:#2aacdd"/><path d="M694.49,535.15a7.55,7.55,0,0,1-.64,3.05,7.92,7.92,0,0,1-1.91,2.4,7.75,7.75,0,0,1-3.5,1.61,10,10,0,0,1-5.33-.57,18.24,18.24,0,0,1-5.57-3.2,20.36,20.36,0,0,1-4.46-5.13,13,13,0,0,1-2-6.33q-.17-3.21-.24-7.69t-.24-8.66q-.17-4.8-.32-9.77a161.33,161.33,0,0,1-13,20.67q-2.89,3.84-6.25,7.61a54.76,54.76,0,0,1-7.06,6.65,37.34,37.34,0,0,1-7.53,4.65,18.58,18.58,0,0,1-7.85,1.77,21.37,21.37,0,0,1-14.42-5.61,32.39,32.39,0,0,1-9.38-15q-3-9.37-1.36-21.8t9.61-25.88q5.77-9.62,12.34-13.86a27.77,27.77,0,0,1,13-4.73,23.76,23.76,0,0,1,11.93,2.08,27.12,27.12,0,0,1,9.06,6.58q2.4-5,4.73-9.62t4.16-8.25q1.85-3.61,3.12-6a18.28,18.28,0,0,1,1.6-2.73,10.18,10.18,0,0,1,4.13-2.32,9,9,0,0,1,5.89.24,17.58,17.58,0,0,1,3.67,1.68,14.76,14.76,0,0,1,3.82,3.29,16.68,16.68,0,0,1,2.86,5.29,24.11,24.11,0,0,1,1.12,7.85c0,2-.06,5.26-.16,9.69s-.19,9.41-.24,14.91-.11,11.27-.16,17.31-.08,11.75-.08,17.15,0,10.12.16,14.18S694.27,533.55,694.49,535.15Zm-48.72-44.87,2.08-3.85c.75-1.38,1.55-2.83,2.4-4.32-.32-1.07-.61-1.95-.88-2.65a2.34,2.34,0,0,0-1-1.36c-.53-.11-1.9.53-4.08,1.92a30.38,30.38,0,0,0-7,6.65,49.75,49.75,0,0,0-6.73,11.7,45.13,45.13,0,0,0-3.2,17.07,78.64,78.64,0,0,0,5.93-6.73q2.72-3.21,6-7.85A105.33,105.33,0,0,0,645.77,490.28Z" transform="translate(-298 -126)" style="fill:#2aacdd"/><path d="M704.44,534.76a163.55,163.55,0,0,1-1.16-16.36,79.88,79.88,0,0,1,.68-13,21.72,21.72,0,0,1,2.62-8.26q1.8-2.82,4.62-2.31a6.76,6.76,0,0,1,3.51,1.92,21.67,21.67,0,0,1,3,3.77,36.45,36.45,0,0,1,2.53,4.59c.74,1.59,1.41,3.08,2,4.45s1.12,2.51,1.54,3.42.79,1.37,1.07,1.37.86-.44,1.72-1.32,1.85-2,3-3.34,2.37-2.83,3.69-4.46,2.6-3.15,3.85-4.58,2.38-2.65,3.38-3.68a8.27,8.27,0,0,1,2.36-1.89,10.48,10.48,0,0,1,3.33-.64,9.32,9.32,0,0,1,4.29.82,10.19,10.19,0,0,1,4,3.34,14.38,14.38,0,0,1,2.43,6.85,75,75,0,0,1,.55,10.15q0,5.61-.3,10.66-.35,5.91-.93,11.82a3.1,3.1,0,0,1-.85,1.63,4.86,4.86,0,0,1-1.83,1,8.86,8.86,0,0,1-3.45.26,5.09,5.09,0,0,1-3.44-1.46,9.88,9.88,0,0,1-1.92-2.74,13.29,13.29,0,0,1-1-3.94q.42-4.71.68-8.47c.06-1.09.11-2.15.17-3.17s.09-1.94.09-2.74a19,19,0,0,0-.09-2c-.06-.54-.14-.84-.25-.9s-.62.22-1.16.82-1.21,1.37-2,2.31-1.7,2-2.7,3.08a41.22,41.22,0,0,1-3.17,3.17,21.73,21.73,0,0,1-3.47,2.57,7.7,7.7,0,0,1-3.51,1.16,9.23,9.23,0,0,1-4.71-.69,18.44,18.44,0,0,1-3.68-2.1,15.66,15.66,0,0,1-2.44-2.18c-.6-.69-1-1-1.16-1s-.19.22-.21.64,0,1,0,1.67,0,1.48.09,2.36.11,1.78.17,2.7c.17,2.17.37,4.59.6,7.28a3.61,3.61,0,0,1-.51,1.88,5,5,0,0,1-1.42,1.37,5.82,5.82,0,0,1-2.78.86,4.69,4.69,0,0,1-3.3-.86,12.49,12.49,0,0,1-2.44-2.31A16.26,16.26,0,0,1,704.44,534.76Z" transform="translate(-298 -126)" style="fill:#d27d2a"/><path d="M764.13,497.33a3,3,0,0,1,1.37-1.45,4.39,4.39,0,0,1,2.14-.43,9.2,9.2,0,0,1,3.51.94,9.59,9.59,0,0,1,3.26,2.18,6.63,6.63,0,0,1,1.79,5,7.9,7.9,0,0,1-.34,1.93c-.11.34-.31,1-.6,2s-.6,2.14-.94,3.51-.67,2.85-1,4.45-.58,3.19-.78,4.76a30.79,30.79,0,0,0-.25,4.53,10.94,10.94,0,0,0,.64,3.73,15.29,15.29,0,0,0,3.34-3,47.35,47.35,0,0,0,3.68-4.84,92.69,92.69,0,0,0,4.8-8q2.57-4.89,4.15-8.27t2.83-5.52a11.63,11.63,0,0,1,2.48-3.17,4.85,4.85,0,0,1,3.21-1,10.15,10.15,0,0,1,6.9,2.44q3,2.54,4.24,8.35c.28,1.32.63,3,1,5s.75,4.33,1.07,6.9.52,5.34.64,8.3a61.35,61.35,0,0,1-2.36,19,46.74,46.74,0,0,1-4.06,9.76,26.33,26.33,0,0,1-5.57,7.28,15.8,15.8,0,0,1-5.7,3.3,11,11,0,0,1-5.31.3,14.19,14.19,0,0,1-4.45-1.67,11.75,11.75,0,0,1-3.13-2.62,4.9,4.9,0,0,1-1.28-2.56,6.77,6.77,0,0,1,.3-3,4.55,4.55,0,0,1,1.41-2.1,3.59,3.59,0,0,1,2.23-.82,4.7,4.7,0,0,1,2.65.82c.92.57,2,.25,3.17-.94a21.92,21.92,0,0,0,3.56-5,51,51,0,0,0,3.17-7.15,44.27,44.27,0,0,0,2-7.45,60.65,60.65,0,0,0,.77-6.38,37.88,37.88,0,0,0,0-5c-.12-1.65-.29-3.17-.52-4.54A73.28,73.28,0,0,1,792,529a39.51,39.51,0,0,1-3.25,4.45,29.8,29.8,0,0,1-3.81,3.81,17.57,17.57,0,0,1-4.29,2.66,9.68,9.68,0,0,1-4.66.81,15.19,15.19,0,0,1-8.18-2.4,15.93,15.93,0,0,1-5.18-5.65,23.22,23.22,0,0,1-2.57-7.53,32.22,32.22,0,0,1-.35-8,66.72,66.72,0,0,1,1.08-7.54q.72-3.6,1.49-6.34Q763.19,500.08,764.13,497.33Z" transform="translate(-298 -126)" style="fill:#d27d2a"/><path d="M496.9,575.32a74.88,74.88,0,0,1,19.6,8.75,63.48,63.48,0,0,1,27.87,37.36q3.57,12.57.86,28.6A53.67,53.67,0,0,1,532,677.65a87.48,87.48,0,0,1-24.66,19A106.46,106.46,0,0,1,477.17,707a109.17,109.17,0,0,1-29.59,1.73q.26,6.4.74,11.59c.33,3,.66,5.87,1,8.75a20.43,20.43,0,0,0,1.23,5.8,11.25,11.25,0,0,1-1,8.38,9.87,9.87,0,0,1-3.82,3.7,14.27,14.27,0,0,1-7,1.48,33.54,33.54,0,0,1-8.63-1.11,18.2,18.2,0,0,1-7.52-4.07,25.16,25.16,0,0,1-5.8-8.14,43.3,43.3,0,0,1-3.45-13.31q-.49-4.44-1.36-12.46T410.35,691a36.85,36.85,0,0,1-5.42-7,20.47,20.47,0,0,1-3-8.27q-.5-5.42,2.09-7.89a13.58,13.58,0,0,1,4.81-3.2q-.5-11.34-.49-23.3t.86-23.43q.86-11.46,2.47-21.82a103.9,103.9,0,0,1,4.56-18.74,22.07,22.07,0,0,1,12.57-4.93q5.43-.24,11.47,3.94t11,17a61.89,61.89,0,0,1,13.07-11.59,51.58,51.58,0,0,1,14.43-6.66Q487,572.61,496.9,575.32Zm-4.19,84.82a42.23,42.23,0,0,0,8.26-8.75,52.52,52.52,0,0,0,5.79-10.48,44.27,44.27,0,0,0,3-11.1A26.4,26.4,0,0,0,509,619q-2.72-10.61-9.74-10.36t-20.59,14.8a92.85,92.85,0,0,0-12.45,16.27q-5.55,9.14-9.74,17-4.68,9.38-8.88,19a54,54,0,0,0,8.39-1,98.07,98.07,0,0,0,12.33-3.08,133.33,133.33,0,0,0,13.19-4.94A50.11,50.11,0,0,0,492.71,660.14Z" transform="translate(-298 -126)" style="fill:#ed330f"/><path d="M557.06,576.79h1.73a11.7,11.7,0,0,0,2.22-.24l1.73-2.47a11.85,11.85,0,0,1,5.67-2.22,25,25,0,0,1,3.45-.24,10.81,10.81,0,0,1,2.71,1c.82.33,1.77.74,2.84,1.24s2.26,1.07,3.57,1.72l11.84-.49c3.94-.16,7.64-.25,11.1-.25s6.49,0,9.12.13a55.66,55.66,0,0,1,5.67.37,26.23,26.23,0,0,1,6.9,2.83,33.31,33.31,0,0,1,12.21,12.21,17.45,17.45,0,0,1,2.34,7.64,9.36,9.36,0,0,1-1.23,5.92,10.59,10.59,0,0,1-3.7,3.45,13.53,13.53,0,0,1-4.81,1.6,32.18,32.18,0,0,1-4.56.37c-.82,0-2.34,0-4.56.13s-4.89.12-8,.12h-21l-2.22,20.47a37.89,37.89,0,0,0,5.17-.74l2.47-.5a30.53,30.53,0,0,1,9.12,2.47,33.88,33.88,0,0,1,7.4,4.81,19.73,19.73,0,0,1,5.67,8q2,5.17,1.24,8.88a16.33,16.33,0,0,1-2.35,6,14.19,14.19,0,0,1-3.33,3.58,8.77,8.77,0,0,1-2,1.23q-5.17.24-9.12.74a71.3,71.3,0,0,0-8.39,1.6,33.78,33.78,0,0,0-8.38,3.33q0,7.89.49,14.67A69.57,69.57,0,0,0,590,696.26a30.21,30.21,0,0,0,3.46,8.64,7.69,7.69,0,0,0,5.54,3.82,14.55,14.55,0,0,0,9.62-1.85,31,31,0,0,0,8.14-7,62.71,62.71,0,0,0,6.78-10.11,113.24,113.24,0,0,0,5.3-11.1q2.22-5.42,3.58-9.86c.9-3,1.51-5.18,1.85-6.66.49-2.13,2.67-3.45,6.53-3.94a25.76,25.76,0,0,1,12.21,1.6,28.32,28.32,0,0,1,11.46,8q5.06,5.69,4.81,15.54a56.53,56.53,0,0,1-5.67,21,74.39,74.39,0,0,1-13.81,20.1,66.72,66.72,0,0,1-20,14.3,42.86,42.86,0,0,1-23.68,3.82q-24.9-3-39.45-24.78T550.9,657.18a298.1,298.1,0,0,1,.62-31.68q1.11-13.93,2.83-24.29a33.54,33.54,0,0,1-3.57-4.19,15.32,15.32,0,0,1-2.35-4.94q-1.23-4.92-.24-8a11.8,11.8,0,0,1,2.71-4.81,8.76,8.76,0,0,1,4.68-2.47Z" transform="translate(-298 -126)" style="fill:#ed330f"/><path d="M661.37,583.45q39-7.89,65.47-9.86t43.4-.12Q787.12,575.32,796,580t12.46,9.74q3.57,5.06,3.32,9.74a18.1,18.1,0,0,1-1.23,6.66q-3.21,5.91-13.44,5.55t-30-3.82a84.66,84.66,0,0,0-20-.74Q746,616,744.47,631.54t-2.22,33.9q-.74,18.38-.12,37.48a235,235,0,0,0,3.57,35.14,8,8,0,0,1-2.22,4.19,14,14,0,0,1-4.19,2.71,16.61,16.61,0,0,1-6.9,1.24,28.07,28.07,0,0,1-8.64-1.36,17.65,17.65,0,0,1-7.76-5.42A33.12,33.12,0,0,1,710,728q-2.48-7.4-3.21-19.23-.5-9.12-.74-21.83t-.12-26q.12-13.32.74-26.26t1.85-22.56q-12.35,2.22-21.46,4.44c-6.08,1.47-10,2.55-11.83,3.2a10.24,10.24,0,0,1-6.78-.37,27.32,27.32,0,0,1-7.52-4.19,31.14,31.14,0,0,1-10.61-15.66c-.82-3.12-.69-5.67.37-7.64a15.89,15.89,0,0,1,4.07-4.93A19.81,19.81,0,0,1,661.37,583.45Z" transform="translate(-298 -126)" style="fill:#ed330f"/><circle cx="689.98" cy="407.4" r="152.02" style="fill:#2aacdd"/><circle cx="692.55" cy="407.22" r="125.31" style="fill:#fff"/><path d="M853,640.63s21.73,0,32.6,32.6l-68.82,68.83s-39.85,7.24-32.6-32.6Z" transform="translate(-298 -126)" style="fill:#2aacdd"/><line x1="576" y1="508" x2="565" y2="518" style="stroke:#000;stroke-miterlimit:10"/><line x1="594" y1="525" x2="583.38" y2="537.15" style="stroke:#000;stroke-miterlimit:10"/><path d="M471.69,406.93q-7.45.45-14.27,8.13t-11.2,24.81a41.66,41.66,0,0,1,6,.88,22.67,22.67,0,0,1,5.82,2.19,32.5,32.5,0,0,1,9.44,7.14,19.52,19.52,0,0,1,4.28,7.57,13,13,0,0,1,.11,6.92,9.52,9.52,0,0,1-7.35,7.25,11.63,11.63,0,0,1-4.72.11,17.26,17.26,0,0,1-5-1.32,24.56,24.56,0,0,0-7.14.55,27.74,27.74,0,0,0-5.82,2.08,195.09,195.09,0,0,0,.77,29.21q1.42,12.73,2.53,17.78a51.56,51.56,0,0,1,1.31,6.81,16.64,16.64,0,0,1-.33,6.37,8.06,8.06,0,0,1-3.29,4.61q-2.52,1.76-7.53,1.75a15.12,15.12,0,0,1-9.06-2.74,30.14,30.14,0,0,1-6.21-5.82,39.11,39.11,0,0,1-4.8-8.34q-2.4-9.89-4.36-22.29a175.08,175.08,0,0,1-1.74-29.31,28.61,28.61,0,0,1-5.27-11.42,7.17,7.17,0,0,1,1.53-6.26,22,22,0,0,1,5.05-4.28q.66-5.7,1.53-11.53c.58-3.87,1.23-7.94,2-12.18q3.27-18,11.45-29.21t18.36-15.92A39.32,39.32,0,0,1,464.89,377a40.89,40.89,0,0,1,20,7.8q9.22,6.8,13.61,14.05t4.94,13.28q.56,6-2.41,9.88c-2,2.57-4.94,3.77-8.9,3.63a17,17,0,0,1-9.77-3.08,26.94,26.94,0,0,1-6.26-6.37A38.46,38.46,0,0,1,471.69,406.93Z" transform="translate(-298 -126)" style="fill:#2aacdd"/></g><g id="b718f00a-8786-46d8-ae67-d42542662c35" data-name="Capa 3"><path d="M970.62,657s63.88,9.11,101.88-28.94V486.5s-1-56-43-65c0,0,7,32,5,38,0,0-6-14-48-27,0,0,12,8,22,43,0,0-46-1-43,26,0,0-54-14-80,0,0,0-8,43,10,92,0,0,45,4,80-11C975.5,582.5,985.62,594,970.62,657Z" transform="translate(-298 -126)" style="fill:#d27d2a"/></g><g id="ed900ab5-d0eb-4fdb-bf01-d4a65eeea100" data-name="Capa 4"><path d="M994.5,657.5s36,1,65-19c0,0,4-12,2-55,0,0-20,13-27,30,0,0-6-2-20,0,0,0,1-11-27-30C987.5,583.5,986.5,650.5,994.5,657.5Z" transform="translate(-298 -126)" style="fill:#8e4610"/></g></svg>